# File created by Blade
# Date/Time:  Tue Jan 27 20:12:12 2015
#---------------------------------------------------------
:version 1.10
:name HOM
:units
  mass 1.0
  length 1.000000
  angle deg
:documentation
     Acclaim Skeleton File
:root
   axis xyz
   order TX TY TZ RX RY RZ
   position 0.000000 0.000000 0.000000
   orientation 0 0 0
:bonedata
   begin
      id 1
      name Spine_dum
      direction 0.000000 1.000000 0.000000
      length 6.116652
      axis 0.0 0.0 0.0 xyz
   end
   begin
      id 2
      name LeftUpLeg_dum
      direction 1.000000 0.000000 0.000000
      length 4.711765
      axis 0.0 0.0 0.0 xyz
   end
   begin
      id 3
      name RightUpLeg_dum
      direction -1.000000 0.000000 0.000000
      length 4.711765
      axis 0.0 0.0 0.0 xyz
   end
   begin
      id 4
      name Spine
      direction 0.000000 1.000000 0.000000
      length 0.000000
      axis 0.0 0.0 0.0 xyz
      dof rx ry rz
   end
   begin
      id 5
      name Spine_dum1
      direction 0.000000 1.000000 0.000000
      length 15.225563
      axis 0.0 0.0 0.0 xyz
   end
   begin
      id 6
      name Spine_dum2
      direction 0.000000 1.000000 0.000000
      length 8.977654
      axis 0.0 0.0 0.0 xyz
   end
   begin
      id 7
      name Spine_dum3
      direction 0.000000 1.000000 0.000000
      length 8.977654
      axis 0.0 0.0 0.0 xyz
   end
   begin
      id 8
      name Head
      direction 0.000000 1.000000 0.000000
      length 4.527550
      axis 0.0 0.0 0.0 xyz
      dof rx ry rz
   end
   begin
      id 9
      name LeftShoulder
      direction 1.000000 0.000000 0.000000
      length 7.110130
      axis 0.0 0.0 -90.0 xyz
      dof rx ry rz
   end
   begin
      id 10
      name LeftArm
      direction 1.000000 0.000000 0.000000
      length 10.398341
      axis 0.0 0.0 -90.0 xyz
      dof rx ry rz
   end
   begin
      id 11
      name LeftForeArm
      direction 1.000000 0.000000 0.000000
      length 8.888997
      axis 0.0 0.0 -90.0 xyz
      dof ry rz rx
   end
   begin
      id 12
      name LeftHand
      direction 0.000000 0.000000 0.000000
      length 0.000000
      axis 0.0 0.0 -90.0 xyz
      dof rx ry rz
   end
   begin
      id 13
      name LeftHand_dum1
      direction 0.000000 0.000000 0.000000
      length 0.000000
      axis 0.0 0.0 -90.0 xyz
   end
   begin
      id 14
      name LeftHand_dum2
      direction 1.000000 0.000000 0.000000
      length 3.937000
      axis 0.0 0.0 -90.0 xyz
   end
   begin
      id 15
      name LeftHandThumb1
      direction 0.000000 0.000000 1.000000
      length 3.937000
      axis 0.0 0.0 -90.0 xyz
      dof rx rz ry
   end
   begin
      id 16
      name RightShoulder
      direction -1.000000 0.000000 0.000000
      length 7.110130
      axis 0.0 0.0 90.0 xyz
      dof rx ry rz
   end
   begin
      id 17
      name RightArm
      direction -1.000000 0.000000 0.000000
      length 10.398341
      axis 0.0 0.0 90.0 xyz
      dof rx ry rz
   end
   begin
      id 18
      name RightForeArm
      direction -1.000000 0.000000 0.000000
      length 8.888997
      axis 0.0 0.0 90.0 xyz
      dof ry rz rx
   end
   begin
      id 19
      name RightHand
      direction 0.000000 0.000000 0.000000
      length 0.000000
      axis 0.0 0.0 90.0 xyz
      dof rx ry rz
   end
   begin
      id 20
      name RightHand_dum1
      direction 0.000000 0.000000 0.000000
      length 0.000000
      axis 0.0 0.0 90.0 xyz
   end
   begin
      id 21
      name RightHand_dum2
      direction -1.000000 0.000000 0.000000
      length 3.937000
      axis 0.0 0.0 90.0 xyz
   end
   begin
      id 22
      name RightHandThumb1
      direction 0.000000 0.000000 1.000000
      length 3.937000
      axis 0.0 0.0 90.0 xyz
      dof rx rz ry
   end
   begin
      id 23
      name LeftUpLeg
      direction 0.000000 -1.000000 0.000000
      length 15.510451
      axis 0.0 0.0 0.0 xyz
      dof rx ry rz
   end
   begin
      id 24
      name LeftLeg
      direction 0.000000 -1.000000 0.000000
      length 14.858061
      axis 0.0 0.0 0.0 xyz
      dof rx ry rz
   end
   begin
      id 25
      name LeftFoot
      direction 0.000000 -0.258819 0.965926
      length 5.128852
      axis 15.0 0.0 0.0 xyz
      dof rx ry rz
   end
   begin
      id 26
      name LeftToeBase
      direction 0.000000 0.000000 1.000000
      length 2.952750
      axis 0.0 0.0 0.0 xyz
      dof rx ry rz
   end
   begin
      id 27
      name RightUpLeg
      direction 0.000000 -1.000000 0.000000
      length 15.510451
      axis 0.0 0.0 0.0 xyz
      dof rx ry rz
   end
   begin
      id 28
      name RightLeg
      direction 0.000000 -1.000000 0.000000
      length 14.858061
      axis 0.0 0.0 0.0 xyz
      dof rx ry rz
   end
   begin
      id 29
      name RightFoot
      direction 0.000000 -0.258819 0.965926
      length 5.128852
      axis 15.0 0.0 0.0 xyz
      dof rx ry rz
   end
   begin
      id 30
      name RightToeBase
      direction 0.000000 0.000000 1.000000
      length 2.952750
      axis 0.0 0.0 0.0 xyz
      dof rx ry rz
   end
:hierarchy
   begin
      root Spine_dum LeftUpLeg_dum RightUpLeg_dum
      Spine_dum Spine
      LeftUpLeg_dum LeftUpLeg
      RightUpLeg_dum RightUpLeg
      Spine Spine_dum1 Spine_dum2 Spine_dum3
      Spine_dum1 Head
      Spine_dum2 LeftShoulder
      Spine_dum3 RightShoulder
      LeftShoulder LeftArm
      LeftArm LeftForeArm
      LeftForeArm LeftHand
      LeftHand LeftHand_dum1 LeftHand_dum2
      LeftHand_dum1 LeftHandThumb1
      RightShoulder RightArm
      RightArm RightForeArm
      RightForeArm RightHand
      RightHand RightHand_dum1 RightHand_dum2
      RightHand_dum1 RightHandThumb1
      LeftUpLeg LeftLeg
      LeftLeg LeftFoot
      LeftFoot LeftToeBase
      RightUpLeg RightLeg
      RightLeg RightFoot
      RightFoot RightToeBase
   end

# File created by Blade
# Date/Time:  Tue Jan 27 20:12:02 2015
# Frame Rate: 120.000 fps
#------------------------------------------------------
:FULLY-SPECIFIED
:DEGREES
897
root 8.697462 32.083486 -3.993975 6.112261 32.379987 4.502307
Spine 1.588113 -8.202248 -6.155819
Head 10.378229 -19.480479 4.334683
LeftShoulder -14.040990 -3.663268 28.787613
LeftArm -10.756737 -32.425316 -68.923510
LeftForeArm -8.314301 -0.000000 93.264261
LeftHand 18.680086 -0.000000 12.565463
LeftHandThumb1 -26.253704 0.000000 33.147579
RightShoulder -23.721197 -25.353651 -22.430482
RightArm 7.810001 -34.641604 89.199175
RightForeArm -23.956853 0.000000 103.731729
RightHand 17.434006 -0.000000 1.376404
RightHandThumb1 -24.326973 -0.000000 -32.862282
LeftUpLeg 1.267564 -18.960393 -10.219977
LeftLeg -3.310219 -0.000000 0.000000
LeftFoot -5.560280 2.241560 -12.992466
LeftToeBase 24.304412 -0.000000 -0.000000
RightUpLeg -10.426337 17.938402 0.982563
RightLeg 85.043628 -0.000000 -0.000000
RightFoot 31.086743 -4.575299 45.954136
RightToeBase 17.697061 -0.000000 -0.000000
898
root 8.703942 32.082659 -3.996678 6.133517 32.365861 4.499812
Spine 1.596487 -8.216530 -6.130375
Head 10.419732 -19.455482 4.269403
LeftShoulder -14.020939 -3.630908 28.760253
LeftArm -10.700645 -32.432066 -68.970322
LeftForeArm -8.339522 0.000000 93.288876
LeftHand 18.717949 -0.000000 12.584672
LeftHandThumb1 -26.253704 0.000000 33.147579
RightShoulder -23.725234 -25.356845 -22.443531
RightArm 7.782341 -34.625664 89.197222
RightForeArm -23.959243 -0.000000 103.735416
RightHand 17.374124 -0.000000 1.382401
RightHandThumb1 -24.326973 -0.000000 -32.862282
LeftUpLeg 1.240880 -18.965779 -10.225459
LeftLeg -3.301845 -0.000000 0.000000
LeftFoot -5.568952 2.263257 -12.963383
LeftToeBase 24.321531 -0.000000 -0.000000
RightUpLeg -10.392772 17.898031 1.003082
RightLeg 85.120752 -0.000000 -0.000000
RightFoot 31.063748 -4.537833 45.857387
RightToeBase 17.502529 -0.000000 -0.000000
899
root 8.710708 32.081519 -4.000465 6.166912 32.349560 4.507846
Spine 1.604785 -8.232105 -6.118656
Head 10.453431 -19.424528 4.228652
LeftShoulder -14.001548 -3.703948 28.721895
LeftArm -10.714030 -32.485157 -68.942932
LeftForeArm -8.239201 -0.000000 93.318653
LeftHand 18.782293 -0.000000 12.584341
LeftHandThumb1 -26.253704 0.000000 33.147579
RightShoulder -23.701386 -25.285819 -22.483685
RightArm 7.646301 -34.602512 89.245304
RightForeArm -23.990796 -0.000000 103.768112
RightHand 17.248619 0.000000 1.367364
RightHandThumb1 -24.326973 -0.000000 -32.862282
LeftUpLeg 1.198301 -18.987247 -10.239641
LeftLeg -3.274022 -0.000000 0.000000
LeftFoot -5.578876 2.289853 -12.963230
LeftToeBase 24.292147 -0.000000 -0.000000
RightUpLeg -10.312357 17.968395 1.067711
RightLeg 85.149959 -0.000000 -0.000000
RightFoot 31.006107 -4.646509 45.826740
RightToeBase 17.534423 -0.000000 -0.000000
900
root 8.716996 32.081419 -4.003045 6.191874 32.349108 4.507414
Spine 1.621033 -8.241495 -6.102320
Head 10.482219 -19.390341 4.201425
LeftShoulder -13.988946 -3.718507 28.703565
LeftArm -10.665699 -32.584243 -69.012965
LeftForeArm -8.131087 -0.000000 93.342692
LeftHand 18.727603 -0.000000 12.326159
LeftHandThumb1 -26.253704 0.000000 33.147579
RightShoulder -23.707051 -25.288499 -22.475483
RightArm 7.607863 -34.570855 89.241131
RightForeArm -23.965538 0.000000 103.779004
RightHand 17.237428 -0.000000 1.447295
RightHandThumb1 -24.326973 -0.000000 -32.862282
LeftUpLeg 1.160797 -19.015235 -10.242287
LeftLeg -3.239882 -0.000000 0.000000
LeftFoot -5.606207 2.288804 -12.984921
LeftToeBase 24.600491 -0.000000 -0.000000
RightUpLeg -10.264959 17.969731 1.096469
RightLeg 85.231538 -0.000000 -0.000000
RightFoot 30.921860 -4.774939 45.829080
RightToeBase 17.871315 -0.000000 -0.000000
901
root 8.721273 32.082167 -4.005987 6.225025 32.333917 4.495973
Spine 1.622880 -8.245005 -6.078826
Head 10.494988 -19.348113 4.177212
LeftShoulder -14.004073 -3.749590 28.700790
LeftArm -10.655298 -32.594189 -69.056249
LeftForeArm -8.117918 -0.000000 93.363620
LeftHand 18.764255 -0.000000 12.286053
LeftHandThumb1 -26.253704 0.000000 33.147579
RightShoulder -23.700558 -25.291820 -22.479920
RightArm 7.573911 -34.538321 89.251961
RightForeArm -23.960932 -0.000000 103.763807
RightHand 17.240906 0.000000 1.413176
RightHandThumb1 -24.326973 -0.000000 -32.862282
LeftUpLeg 1.104463 -18.988490 -10.230221
LeftLeg -3.212570 -0.000000 0.000000
LeftFoot -5.561019 2.268208 -13.061974
LeftToeBase 24.050236 -0.000000 -0.000000
RightUpLeg -10.239282 17.970593 1.113207
RightLeg 85.302193 -0.000000 -0.000000
RightFoot 30.912579 -4.849022 45.812742
RightToeBase 17.963154 -0.000000 -0.000000
902
root 8.723938 32.082489 -4.009237 6.264401 32.319902 4.488540
Spine 1.624878 -8.259090 -6.067734
Head 10.485551 -19.305913 4.185731
LeftShoulder -14.019619 -3.744916 28.705007
LeftArm -10.639389 -32.608925 -69.109182
LeftForeArm -8.107229 -0.000000 93.402314
LeftHand 18.739982 -0.000000 12.374386
LeftHandThumb1 -26.253704 0.000000 33.147579
RightShoulder -23.682499 -25.295126 -22.480953
RightArm 7.540582 -34.504885 89.269961
RightForeArm -23.958574 0.000000 103.759083
RightHand 17.242051 -0.000000 1.446737
RightHandThumb1 -24.326973 -0.000000 -32.862282
LeftUpLeg 1.044842 -18.964474 -10.218543
LeftLeg -3.197814 -0.000000 0.000000
LeftFoot -5.584781 2.277478 -12.916200
LeftToeBase 24.303387 -0.000000 -0.000000
RightUpLeg -10.196273 18.036630 1.176594
RightLeg 85.399385 -0.000000 -0.000000
RightFoot 30.719140 -4.825018 46.099151
RightToeBase 18.280491 -0.000000 -0.000000
903
root 8.726023 32.083003 -4.013515 6.312226 32.304564 4.483561
Spine 1.626486 -8.258619 -6.061904
Head 10.465027 -19.271306 4.206348
LeftShoulder -14.016857 -3.806342 28.704466
LeftArm -10.673081 -32.659651 -69.114762
LeftForeArm -8.091790 -0.000000 93.437052
LeftHand 18.724321 0.000000 12.446959
LeftHandThumb1 -26.253704 0.000000 33.147579
RightShoulder -23.672491 -25.270716 -22.495402
RightArm 7.463960 -34.472174 89.324300
RightForeArm -23.979930 -0.000000 103.746668
RightHand 17.238991 -0.000000 1.410413
RightHandThumb1 -24.326973 -0.000000 -32.862282
LeftUpLeg 0.978653 -18.940883 -10.206292
LeftLeg -3.182616 -0.000000 0.000000
LeftFoot -5.573035 2.266277 -12.917502
LeftToeBase 24.276498 -0.000000 -0.000000
RightUpLeg -10.165665 18.054619 1.203991
RightLeg 85.499901 -0.000000 -0.000000
RightFoot 30.676543 -4.768567 45.967869
RightToeBase 17.732981 -0.000000 -0.000000
904
root 8.728028 32.083598 -4.016699 6.356236 32.293897 4.474482
Spine 1.625931 -8.239214 -6.050887
Head 10.441780 -19.260552 4.221737
LeftShoulder -13.998968 -3.861035 28.689334
LeftArm -10.667016 -32.764127 -69.140892
LeftForeArm -8.017693 -0.000000 93.460215
LeftHand 18.734269 -0.000000 12.407876
LeftHandThumb1 -26.253704 0.000000 33.147579
RightShoulder -23.684163 -25.279526 -22.494244
RightArm 7.414348 -34.445422 89.365925
RightForeArm -23.994222 0.000000 103.739501
RightHand 17.225223 0.000000 1.364691
RightHandThumb1 -24.326973 -0.000000 -32.862282
LeftUpLeg 0.923165 -18.945599 -10.191772
LeftLeg -3.179600 -0.000000 0.000000
LeftFoot -5.571097 2.295767 -12.890762
LeftToeBase 24.274409 -0.000000 -0.000000
RightUpLeg -10.130288 18.052006 1.239599
RightLeg 85.586820 -0.000000 -0.000000
RightFoot 30.677501 -4.632626 45.773785
RightToeBase 17.102449 -0.000000 -0.000000
905
root 8.727553 32.084845 -4.020010 6.404661 32.286442 4.439354
Spine 1.610353 -8.237264 -6.016479
Head 10.409088 -19.248471 4.253605
LeftShoulder -14.001609 -3.866856 28.686616
LeftArm -10.658232 -32.822837 -69.184020
LeftForeArm -7.990024 -0.000000 93.501486
LeftHand 18.702041 -0.000000 12.466325
LeftHandThumb1 -26.253704 0.000000 33.147579
RightShoulder -23.692167 -25.287527 -22.477979
RightArm 7.401474 -34.424180 89.366976
RightForeArm -24.025313 -0.000000 103.734919
RightHand 17.227043 -0.000000 1.365039
RightHandThumb1 -24.326973 -0.000000 -32.862282
LeftUpLeg 0.854527 -18.963300 -10.141988
LeftLeg -3.205714 -0.000000 0.000000
LeftFoot -5.599503 2.333881 -13.021693
LeftToeBase 24.524788 -0.000000 -0.000000
RightUpLeg -10.109145 18.049797 1.287817
RightLeg 85.652529 -0.000000 -0.000000
RightFoot 30.650868 -4.814935 45.600968
RightToeBase 16.965017 -0.000000 -0.000000
906
root 8.732617 32.084012 -4.024631 6.466906 32.271105 4.461114
Spine 1.609600 -8.224892 -6.033631
Head 10.383719 -19.226604 4.276478
LeftShoulder -14.012465 -3.884399 28.716225
LeftArm -10.671225 -32.869831 -69.236841
LeftForeArm -7.952057 -0.000000 93.529097
LeftHand 18.714572 -0.000000 12.469835
LeftHandThumb1 -26.253704 0.000000 33.147579
RightShoulder -23.706055 -25.328332 -22.460698
RightArm 7.420753 -34.400476 89.353542
RightForeArm -23.996266 -0.000000 103.731583
RightHand 17.299635 -0.000000 1.317939
RightHandThumb1 -24.326973 -0.000000 -32.862282
LeftUpLeg 0.812649 -18.992538 -10.161045
LeftLeg -3.214118 -0.000000 0.000000
LeftFoot -5.560576 2.358831 -12.865426
LeftToeBase 24.565155 -0.000000 -0.000000
RightUpLeg -10.045093 18.010698 1.248648
RightLeg 85.738574 -0.000000 -0.000000
RightFoot 30.592252 -4.829610 45.590217
RightToeBase 16.544010 -0.000000 -0.000000
907
root 8.734277 32.083981 -4.028591 6.527761 32.270638 4.452959
Spine 1.590920 -8.222432 -6.023183
Head 10.354138 -19.231762 4.307046
LeftShoulder -14.016492 -3.923570 28.743265
LeftArm -10.721762 -32.905378 -69.253761
LeftForeArm -7.930709 -0.000000 93.572403
LeftHand 18.656092 0.000000 12.429850
LeftHandThumb1 -26.253704 0.000000 33.147579
RightShoulder -23.711977 -25.367522 -22.438301
RightArm 7.435147 -34.357375 89.353233
RightForeArm -24.003410 -0.000000 103.737822
RightHand 17.304996 0.000000 1.372394
RightHandThumb1 -24.326973 -0.000000 -32.862282
LeftUpLeg 0.753800 -19.003579 -10.139413
LeftLeg -3.241194 -0.000000 0.000000
LeftFoot -5.496473 2.374200 -12.929145
LeftToeBase 24.138559 -0.000000 -0.000000
RightUpLeg -10.001145 17.973822 1.251607
RightLeg 85.819331 -0.000000 -0.000000
RightFoot 30.530962 -4.932333 45.612930
RightToeBase 16.823160 -0.000000 -0.000000
908
root 8.736577 32.084057 -4.033156 6.604378 32.271023 4.445770
Spine 1.554163 -8.214977 -6.003214
Head 10.327563 -19.224841 4.323233
LeftShoulder -14.030030 -3.921758 28.752404
LeftArm -10.712375 -32.928152 -69.296389
LeftForeArm -7.923246 -0.000000 93.600133
LeftHand 18.664305 -0.000000 12.423075
LeftHandThumb1 -26.253704 0.000000 33.147579
RightShoulder -23.728566 -25.442211 -22.402845
RightArm 7.492866 -34.331820 89.316955
RightForeArm -24.012462 -0.000000 103.752190
RightHand 17.285585 -0.000000 1.432702
RightHandThumb1 -24.326973 -0.000000 -32.862282
LeftUpLeg 0.683711 -19.018628 -10.114651
LeftLeg -3.276916 -0.000000 0.000000
LeftFoot -5.510969 2.396764 -12.799677
LeftToeBase 24.541576 -0.000000 -0.000000
RightUpLeg -9.945877 18.026770 1.307306
RightLeg 85.907370 -0.000000 -0.000000
RightFoot 30.420602 -4.985765 45.680375
RightToeBase 16.903534 -0.000000 -0.000000
909
root 8.741629 32.082520 -4.037079 6.654534 32.297511 4.458508
Spine 1.561451 -8.199525 -5.998788
Head 10.297713 -19.249130 4.334108
LeftShoulder -14.010822 -3.914935 28.758199
LeftArm -10.680891 -32.967007 -69.350844
LeftForeArm -7.929138 0.000000 93.624226
LeftHand 18.695171 -0.000000 12.392100
LeftHandThumb1 -26.253704 0.000000 33.147579
RightShoulder -23.753091 -25.479739 -22.393611
RightArm 7.481991 -34.292284 89.340525
RightForeArm -24.037614 0.000000 103.767664
RightHand 17.269829 0.000000 1.385085
RightHandThumb1 -24.326973 -0.000000 -32.862282
LeftUpLeg 0.666577 -19.059320 -10.120659
LeftLeg -3.341819 -0.000000 0.000000
LeftFoot -5.462803 2.445376 -12.768684
LeftToeBase 24.235307 -0.000000 -0.000000
RightUpLeg -9.836041 17.965830 1.297048
RightLeg 85.976790 -0.000000 -0.000000
RightFoot 30.360931 -4.986679 45.665980
RightToeBase 16.698388 -0.000000 -0.000000
